<svg width="20" height="20" viewBox="0 0 20 20" fill="none" xmlns="http://www.w3.org/2000/svg">
<g clip-path="url(#clip0_1842_9929)">
<path d="M9.99992 5C13.1583 5 15.9749 6.77501 17.3499 9.58334C16.8583 10.6 16.1666 11.475 15.3416 12.1833L16.5166 13.3583C17.6749 12.3333 18.5916 11.05 19.1666 9.58334C17.7249 5.92501 14.1666 3.33334 9.99992 3.33334C8.94159 3.33334 7.92492 3.50001 6.96659 3.80834L8.34159 5.18334C8.88325 5.075 9.43325 5 9.99992 5ZM9.10825 5.95L10.8333 7.67501C11.3083 7.88334 11.6916 8.26667 11.8999 8.74167L13.6249 10.4667C13.6916 10.1833 13.7416 9.88334 13.7416 9.575C13.7499 7.50834 12.0666 5.83334 9.99992 5.83334C9.69159 5.83334 9.39992 5.875 9.10825 5.95ZM1.67492 3.225L3.90825 5.45834C2.54992 6.52501 1.47492 7.94167 0.833252 9.58334C2.27492 13.2417 5.83325 15.8333 9.99992 15.8333C11.2666 15.8333 12.4833 15.5917 13.5999 15.15L16.4499 18L17.6249 16.825L2.84992 2.04167L1.67492 3.225ZM7.92492 9.475L10.0999 11.65C10.0666 11.6583 10.0333 11.6667 9.99992 11.6667C8.84992 11.6667 7.91659 10.7333 7.91659 9.58334C7.91659 9.54167 7.92492 9.51667 7.92492 9.475V9.475ZM5.09159 6.64167L6.54992 8.10001C6.35825 8.55834 6.24992 9.05834 6.24992 9.58334C6.24992 11.65 7.93325 13.3333 9.99992 13.3333C10.5249 13.3333 11.0249 13.225 11.4749 13.0333L12.2916 13.85C11.5583 14.05 10.7916 14.1667 9.99992 14.1667C6.84159 14.1667 4.02492 12.3917 2.64992 9.58334C3.23325 8.39167 4.08325 7.40834 5.09159 6.64167Z" fill="#767676"/>
</g>
<defs>
<clipPath id="clip0_1842_9929">
<rect width="20" height="20" fill="white"/>
</clipPath>
</defs>
</svg>
